<svg width="32" height="32" viewBox="0 0 32 32" fill="none" xmlns="http://www.w3.org/2000/svg">
<path d="M4.33057 25.8004L4.52412 25.5294L13.6778 8.16063L13.6971 7.97674L9.66208 0.397297C9.32384 -0.237598 8.37205 -0.0770505 8.26119 0.633696L4.33057 25.8004Z" fill="#FFC24A"/>
<path d="M4.44482 25.5938L4.59115 25.3084L13.649 8.12153L9.6239 0.511271C9.28941 -0.116968 8.4399 0.0432139 8.33013 0.746485L4.44482 25.5938Z" fill="#FFA712"/>
<g filter="url(#filter0_i_43_1283)">
<path d="M4.44482 25.5938L4.59115 25.3084L13.649 8.12153L9.6239 0.511271C9.28941 -0.116968 8.4399 0.0432139 8.33013 0.746485L4.44482 25.5938Z" fill="black"/>
</g>
<path d="M16.6387 13.7099L19.6431 10.6329L16.6378 4.89572C16.3525 4.35264 15.556 4.351 15.2737 4.89572L13.668 7.95779V8.21853L16.6386 13.7099H16.6387Z" fill="#F4BD62"/>
<path d="M16.585 13.5817L19.506 10.5903L16.585 5.02838C16.3077 4.50042 15.6339 4.44508 15.3595 4.97459L13.7453 8.08424L13.697 8.24324L16.585 13.5817Z" fill="#FFA50E"/>
<g filter="url(#filter1_i_43_1283)">
<path d="M16.585 13.5817L19.506 10.5903L16.585 5.02838C16.3077 4.50042 15.6339 4.44508 15.3595 4.97459L13.7453 8.08424L13.697 8.24324L16.585 13.5817Z" fill="black"/>
</g>
<path d="M4.33057 25.8004L4.41827 25.7122L4.73699 25.5827L16.45 13.9132L16.5984 13.5092L13.6765 7.94122L4.33057 25.8004Z" fill="#F6820C"/>
<path d="M17.014 31.6856L27.6145 25.7736L24.5874 7.13016C24.4927 6.54687 23.7771 6.3163 23.3595 6.73449L4.33057 25.8004L14.8703 31.6851C15.1979 31.868 15.5669 31.9641 15.9421 31.9641C16.3173 31.9642 16.6863 31.8683 17.014 31.6856Z" fill="#FDE068"/>
<path d="M27.5194 25.724L24.5152 7.22214C24.4213 6.64322 23.8261 6.40372 23.4118 6.81881L4.448 25.7641L14.8721 31.5905C15.1972 31.772 15.5633 31.8673 15.9357 31.8674C16.308 31.8675 16.6742 31.7724 16.9994 31.591L27.5195 25.7239L27.5194 25.724Z" fill="#FCCA3F"/>
<path d="M17.0138 31.5113C16.6861 31.6941 16.3171 31.79 15.9419 31.7899C15.5668 31.7898 15.1978 31.6937 14.8702 31.5109L4.41535 25.7107L4.33057 25.8004L14.8702 31.6851C15.1978 31.868 15.5668 31.964 15.942 31.9641C16.3172 31.9642 16.6862 31.8683 17.0139 31.6855L27.6144 25.7736L27.5885 25.6138L17.0139 31.5114L17.0138 31.5113Z" fill="#EEAB37"/>
<defs>
<filter id="filter0_i_43_1283" x="4.44482" y="0.118652" width="9.2041" height="25.4752" filterUnits="userSpaceOnUse" color-interpolation-filters="sRGB">
<feFlood flood-opacity="0" result="BackgroundImageFix"/>
<feBlend mode="normal" in="SourceGraphic" in2="BackgroundImageFix" result="shape"/>
<feColorMatrix in="SourceAlpha" type="matrix" values="0 0 0 0 0 0 0 0 0 0 0 0 0 0 0 0 0 0 127 0" result="hardAlpha"/>
<feOffset/>
<feGaussianBlur stdDeviation="39.886"/>
<feComposite in2="hardAlpha" operator="arithmetic" k2="-1" k3="1"/>
<feColorMatrix type="matrix" values="0 0 0 0 0 0 0 0 0 0 0 0 0 0 0 0 0 0 0.06 0"/>
<feBlend mode="normal" in2="shape" result="effect1_innerShadow_43_1283"/>
</filter>
<filter id="filter1_i_43_1283" x="13.697" y="-11.3505" width="8.08804" height="24.9322" filterUnits="userSpaceOnUse" color-interpolation-filters="sRGB">
<feFlood flood-opacity="0" result="BackgroundImageFix"/>
<feBlend mode="normal" in="SourceGraphic" in2="BackgroundImageFix" result="shape"/>
<feColorMatrix in="SourceAlpha" type="matrix" values="0 0 0 0 0 0 0 0 0 0 0 0 0 0 0 0 0 0 127 0" result="hardAlpha"/>
<feOffset dx="2.2792" dy="-20.5128"/>
<feGaussianBlur stdDeviation="7.97721"/>
<feComposite in2="hardAlpha" operator="arithmetic" k2="-1" k3="1"/>
<feColorMatrix type="matrix" values="0 0 0 0 0 0 0 0 0 0 0 0 0 0 0 0 0 0 0.09 0"/>
<feBlend mode="normal" in2="shape" result="effect1_innerShadow_43_1283"/>
</filter>
</defs>
</svg>
