<svg width="32" height="32" viewBox="0 0 32 32" fill="none" xmlns="http://www.w3.org/2000/svg">
<g clip-path="url(#clip0_43_1282)">
<path d="M25.4248 0.438354H6.57546C3.1861 0.438354 0.438477 3.18598 0.438477 6.57534V25.4247C0.438477 28.814 3.1861 31.5616 6.57546 31.5616H25.4248C28.8141 31.5616 31.5618 28.814 31.5618 25.4247V6.57534C31.5618 3.18598 28.8141 0.438354 25.4248 0.438354Z" fill="black" stroke="black" stroke-width="21.9178"/>
<path d="M26.4361 10.2699C25.3792 8.45904 23.9456 7.02541 22.1349 5.96864C20.324 4.91182 18.347 4.38354 16.2025 4.38354C14.0583 4.38354 12.0807 4.91198 10.2701 5.96864C8.45929 7.02535 7.02576 8.45904 5.96888 10.2699C4.91217 12.0806 4.38379 14.058 4.38379 16.202C4.38379 18.7773 5.13516 21.0931 6.63827 23.15C8.14122 25.2071 10.0828 26.6304 12.4629 27.4204C12.7399 27.4718 12.945 27.4356 13.0784 27.3128C13.2118 27.1898 13.2784 27.0357 13.2784 26.8513C13.2784 26.8205 13.2757 26.5436 13.2706 26.0203C13.2653 25.497 13.2629 25.0404 13.2629 24.6509L12.9089 24.7121C12.6832 24.7535 12.3985 24.771 12.0548 24.766C11.7112 24.7612 11.3546 24.7252 10.9853 24.6583C10.6159 24.5919 10.2723 24.4381 9.95421 24.197C9.6363 23.9559 9.41062 23.6403 9.27722 23.2507L9.12334 22.8966C9.02076 22.6608 8.85928 22.3989 8.63867 22.1118C8.41805 21.8245 8.19496 21.6297 7.96928 21.5271L7.86153 21.45C7.78974 21.3987 7.72312 21.3369 7.66151 21.2652C7.59996 21.1934 7.55387 21.1216 7.52309 21.0497C7.49226 20.9778 7.51781 20.9188 7.60001 20.8725C7.68221 20.8262 7.83076 20.8037 8.0463 20.8037L8.35396 20.8497C8.55916 20.8908 8.81298 21.0136 9.11574 21.2189C9.41833 21.4241 9.66708 21.6908 9.86204 22.0189C10.0981 22.4397 10.3826 22.7603 10.7161 22.9809C11.0495 23.2015 11.3855 23.3116 11.724 23.3116C12.0625 23.3116 12.3549 23.2859 12.6012 23.2349C12.8472 23.1836 13.0781 23.1065 13.2936 23.0039C13.386 22.3163 13.6374 21.788 14.0476 21.4187C13.4629 21.3573 12.9372 21.2647 12.4703 21.1417C12.0036 21.0185 11.5214 20.8185 11.0239 20.5412C10.5261 20.2644 10.1132 19.9205 9.78496 19.5103C9.45671 19.1 9.18731 18.5612 8.97716 17.8945C8.76689 17.2275 8.66174 16.4581 8.66174 15.5861C8.66174 14.3446 9.06706 13.288 9.87756 12.4159C9.49789 11.4825 9.53373 10.436 9.9852 9.27676C10.2827 9.18432 10.724 9.25369 11.3087 9.48444C11.8935 9.71529 12.3217 9.91305 12.5936 10.077C12.8656 10.2409 13.0835 10.3798 13.2477 10.4925C14.202 10.2258 15.1868 10.0925 16.2024 10.0925C17.218 10.0925 18.203 10.2258 19.1574 10.4925L19.7421 10.1233C20.142 9.87699 20.6143 9.65126 21.1577 9.44606C21.7014 9.24097 22.1172 9.18448 22.4046 9.27692C22.8661 10.4363 22.9072 11.4826 22.5274 12.4161C23.3379 13.2882 23.7434 14.345 23.7434 15.5863C23.7434 16.4583 23.6378 17.2301 23.4279 17.9022C23.2177 18.5744 22.946 19.1126 22.6127 19.5181C22.279 19.9234 21.8634 20.2646 21.3659 20.5414C20.8683 20.8184 20.3859 21.0184 19.9192 21.1416C19.4523 21.2649 18.9266 21.3575 18.3419 21.419C18.8752 21.8805 19.1419 22.609 19.1419 23.6041V26.8508C19.1419 27.0353 19.2061 27.1893 19.3344 27.3123C19.4627 27.4352 19.6652 27.4713 19.9422 27.4199C22.3226 26.6301 24.2642 25.2066 25.7671 23.1496C27.2698 21.0927 28.0215 18.7769 28.0215 16.2015C28.0209 14.0579 27.4923 12.0806 26.4361 10.2699Z" fill="white"/>
</g>
<defs>
<clipPath id="clip0_43_1282">
<rect width="32" height="32" rx="5" fill="white"/>
</clipPath>
</defs>
</svg>
