<svg width="32" height="32" viewBox="0 0 32 32" fill="none" xmlns="http://www.w3.org/2000/svg">
<g clip-path="url(#clip0_43_1277)">
<mask id="mask0_43_1277" style="mask-type:luminance" maskUnits="userSpaceOnUse" x="0" y="0" width="32" height="32">
<path d="M32 0H0V32H32V0Z" fill="white"/>
</mask>
<g mask="url(#mask0_43_1277)">
<path d="M14.9521 0.00861258C14.8833 0.0148687 14.6643 0.0367651 14.4672 0.0524053C9.92219 0.46218 5.66491 2.91457 2.96852 6.68388C1.46705 8.77968 0.506745 11.157 0.143891 13.6751C0.0156403 14.5541 0 14.8137 0 16.0055C0 17.1973 0.0156403 17.4569 0.143891 18.3359C1.01349 24.3449 5.28955 29.3936 11.089 31.2641C12.1275 31.5988 13.2223 31.8272 14.4672 31.9648C14.9521 32.018 17.0479 32.018 17.5328 31.9648C19.6817 31.7271 21.5023 31.1953 23.2977 30.2788C23.5731 30.138 23.6261 30.1005 23.5887 30.0692C23.5636 30.0504 22.3907 28.4771 20.9829 26.5752L18.4243 23.1187L15.218 18.3735C13.4537 15.7647 12.0023 13.6313 11.9898 13.6313C11.9773 13.6281 11.9648 15.7365 11.9585 18.3108C11.9492 22.8184 11.946 22.9999 11.8897 23.1061C11.8084 23.2595 11.7458 23.322 11.6145 23.3908C11.5144 23.4409 11.4268 23.4503 10.9545 23.4503H10.4133L10.2694 23.3596C10.1756 23.3001 10.1067 23.2219 10.0598 23.1312L9.99413 22.9904L10.0004 16.7187L10.0098 10.4438L10.1067 10.3218C10.1568 10.2561 10.2631 10.1717 10.3382 10.131C10.4665 10.0684 10.5165 10.0622 11.0577 10.0622C11.6958 10.0622 11.8021 10.0872 11.9679 10.2686C12.0149 10.3187 13.7509 12.9337 15.828 16.0837C17.9049 19.2336 20.7452 23.5347 22.1404 25.6461L24.6741 29.4843L24.8024 29.3999C25.9379 28.6616 27.1391 27.6105 28.0899 26.5157C30.1137 24.1916 31.4181 21.3576 31.8561 18.3359C31.9844 17.4569 32 17.1973 32 16.0055C32 14.8137 31.9844 14.5541 31.8561 13.6751C30.9865 7.66609 26.7104 2.61741 20.9111 0.746833C19.8881 0.41526 18.7996 0.186912 17.5797 0.0492773C17.2793 0.0179968 15.2117 -0.0164119 14.9521 0.00861258ZM21.5023 9.68681C21.6524 9.76189 21.7744 9.90577 21.8181 10.0559C21.8432 10.1373 21.8495 11.8765 21.8432 15.7959L21.8339 21.4201L20.8423 19.8999L19.8475 18.3797V14.2913C19.8475 11.6481 19.86 10.1623 19.8788 10.0903C19.9288 9.91516 20.0383 9.77753 20.1884 9.6962C20.3167 9.63051 20.3636 9.62425 20.8548 9.62425C21.3177 9.62425 21.3991 9.63051 21.5023 9.68681Z" fill="black"/>
</g>
</g>
<defs>
<clipPath id="clip0_43_1277">
<rect width="32" height="32" fill="white"/>
</clipPath>
</defs>
</svg>
