<svg width="32" height="32" viewBox="0 0 32 32" fill="none" xmlns="http://www.w3.org/2000/svg">
<g clip-path="url(#clip0_43_1285)">
<path d="M25.4248 0.438354H6.57546C3.1861 0.438354 0.438477 3.18598 0.438477 6.57534V25.4247C0.438477 28.814 3.1861 31.5616 6.57546 31.5616H25.4248C28.8141 31.5616 31.5618 28.814 31.5618 25.4247V6.57534C31.5618 3.18598 28.8141 0.438354 25.4248 0.438354Z" fill="white" stroke="black"/>
<path d="M28.0286 14.4652H28.1028C28.1638 14.4652 28.1754 14.4226 28.1754 14.3976C28.1754 14.3322 28.1305 14.3322 28.1056 14.3322H28.0291L28.0286 14.4652ZM27.9382 14.2558H28.1028C28.1593 14.2558 28.2702 14.2558 28.2702 14.3821C28.2702 14.4702 28.2136 14.4885 28.1798 14.4996C28.2458 14.504 28.2502 14.5472 28.2591 14.6082C28.2635 14.6464 28.2707 14.7124 28.284 14.7345H28.1826C28.1798 14.7124 28.1643 14.5905 28.1643 14.5838C28.1577 14.5567 28.1482 14.5434 28.1144 14.5434H28.0308V14.7351H27.9382V14.2558ZM27.7404 14.4941C27.7404 14.6924 27.9006 14.8531 28.0973 14.8531C28.2956 14.8531 28.4558 14.6891 28.4558 14.4941C28.4558 14.2951 28.2934 14.1372 28.0967 14.1372C27.9028 14.1372 27.7399 14.2929 27.7399 14.4935L27.7404 14.4941ZM28.5245 14.4952C28.5245 14.7301 28.3322 14.9218 28.0978 14.9218C27.8651 14.9218 27.6711 14.7323 27.6711 14.4952C27.6711 14.2536 27.8695 14.0685 28.0978 14.0685C28.3278 14.0685 28.5239 14.2541 28.5239 14.4952H28.5245Z" fill="#689F63"/>
<path fill-rule="evenodd" clip-rule="evenodd" d="M9.26069 16.0176C9.26069 15.9157 9.20693 15.822 9.11894 15.7713L6.77187 14.4209C6.73225 14.3976 6.68786 14.3854 6.64287 14.3838H6.6186C6.5736 14.3854 6.52921 14.3976 6.48893 14.4209L4.14197 15.7713C4.05453 15.8223 4 15.9159 4 16.0179L4.00515 19.6552C4.00515 19.7056 4.0312 19.7527 4.07553 19.7777C4.11875 19.8043 4.17305 19.8043 4.21628 19.7777L5.61158 18.9786C5.69968 18.9262 5.75343 18.8336 5.75343 18.7326V17.0334C5.75343 16.9319 5.80718 16.8383 5.89501 16.7879L6.48904 16.4458C6.53315 16.4203 6.58158 16.4076 6.6309 16.4076C6.67944 16.4076 6.72898 16.4202 6.77187 16.4457L7.36562 16.7877C7.4535 16.8381 7.50747 16.9318 7.50747 17.0332V18.7323C7.50747 18.8332 7.56195 18.9263 7.64961 18.9783L9.04402 19.7768C9.0878 19.8029 9.14227 19.8029 9.18588 19.7768C9.22888 19.7519 9.25614 19.7048 9.25614 19.6544L9.26069 16.0176ZM20.336 17.9114C20.336 17.9367 20.3225 17.9602 20.3005 17.9727L19.4944 18.4374C19.4725 18.45 19.4454 18.45 19.4236 18.4374L18.6173 17.9727C18.5952 17.9601 18.5819 17.9367 18.5819 17.9114V16.9807C18.5819 16.9553 18.5952 16.9319 18.6168 16.9192L19.4225 16.4537C19.4446 16.441 19.4718 16.441 19.494 16.4537L20.3002 16.9192C20.3224 16.9319 20.3357 16.9553 20.3357 16.9807L20.336 17.9114ZM20.5537 11.0179C20.5097 10.9934 20.4562 10.9941 20.4128 11.0194C20.3695 11.0449 20.3428 11.0915 20.3428 11.1419V14.7437C20.3428 14.7792 20.324 14.8119 20.2933 14.8296C20.2628 14.8474 20.2249 14.8474 20.1941 14.8296L19.6062 14.491C19.5186 14.4404 19.4108 14.4404 19.3229 14.491L16.9751 15.846C16.8873 15.8964 16.8332 15.9901 16.8332 16.0909V18.8017C16.8332 18.9032 16.8873 18.9962 16.9751 19.0472L19.3229 20.4032C19.4106 20.4536 19.5185 20.4536 19.6065 20.4032L21.9543 19.0467C22.0419 18.9957 22.0962 18.9026 22.0962 18.8012V12.0452C22.0962 11.9424 22.0402 11.8478 21.9504 11.7975L20.5537 11.0179ZM28.3721 16.9562C28.4593 16.9056 28.513 16.812 28.513 16.7112V16.0542C28.513 15.9531 28.4593 15.8599 28.3719 15.809L26.039 14.4547C25.9509 14.4037 25.8428 14.4037 25.7547 14.4547L23.4074 15.8096C23.3193 15.8605 23.2656 15.9536 23.2656 16.055V18.7647C23.2656 18.8667 23.3205 18.9609 23.4086 19.0113L25.7409 20.3407C25.8268 20.39 25.9321 20.3905 26.0191 20.3423L27.4299 19.5582C27.4742 19.5333 27.5025 19.4862 27.5025 19.4352C27.5025 19.3842 27.4753 19.3366 27.431 19.3117L25.0693 17.9563C25.025 17.9313 24.9978 17.8842 24.9978 17.8338V16.9838C24.9978 16.933 25.0244 16.8862 25.0687 16.861L25.8035 16.4371C25.8473 16.4116 25.901 16.4116 25.9448 16.4371L26.6801 16.861C26.7239 16.8859 26.7511 16.933 26.7511 16.9834V17.6517C26.7511 17.7021 26.7782 17.7492 26.822 17.7747C26.8658 17.7997 26.9201 17.7997 26.9639 17.7742L28.3721 16.9562Z" fill="#333333"/>
<path fill-rule="evenodd" clip-rule="evenodd" d="M25.8625 16.8294C25.8791 16.8196 25.8999 16.8196 25.9168 16.8294L26.3673 17.0893C26.3841 17.0991 26.3944 17.117 26.3944 17.1364V17.6568C26.3944 17.6761 26.3841 17.6941 26.3673 17.7039L25.9168 17.9637C25.8999 17.9736 25.8791 17.9736 25.8625 17.9637L25.4122 17.7039C25.3951 17.6941 25.3845 17.6761 25.3845 17.6568V17.1364C25.3845 17.117 25.3945 17.0991 25.4117 17.0893L25.8625 16.8294Z" fill="#689F63"/>
<path d="M12.9395 14.7653L10.5034 16.1714C10.4123 16.2239 10.3562 16.3211 10.3562 16.4262V19.2403C10.3562 19.3455 10.4123 19.4426 10.5034 19.4951L12.9397 20.9023C13.0308 20.9547 13.1429 20.9547 13.234 20.9023L15.6699 19.4951C15.7607 19.4424 15.8167 19.3454 15.8167 19.2403V16.4262C15.8167 16.321 15.7605 16.2239 15.6693 16.1714L13.2338 14.7653C13.1425 14.7129 13.0302 14.7129 12.9389 14.7653" fill="url(#paint0_linear_43_1285)"/>
<path d="M10.4165 19.419C10.4401 19.4499 10.4696 19.4757 10.5032 19.4951L12.593 20.7022L12.9411 20.9023C12.9925 20.9318 13.0516 20.9452 13.1107 20.9407C13.1303 20.9391 13.1497 20.9355 13.1685 20.9301L15.7379 16.2256C15.7179 16.2042 15.6948 16.1858 15.6694 16.1713L14.0743 15.2501L13.2311 14.765C13.2072 14.7514 13.1815 14.7411 13.1548 14.7343L10.4165 19.419Z" fill="url(#paint1_linear_43_1285)"/>
<path d="M13.0573 14.7277C13.0159 14.7318 12.9758 14.7447 12.9397 14.7654L10.5105 16.1674L13.1299 20.9384C13.1668 20.9332 13.2023 20.9209 13.2346 20.9023L15.6707 19.4951C15.7451 19.4521 15.797 19.3787 15.8129 19.2941L13.1426 14.7324C13.123 14.7285 13.103 14.7266 13.083 14.7266C13.0749 14.7266 13.0668 14.7269 13.0587 14.7277" fill="url(#paint2_linear_43_1285)"/>
</g>
<defs>
<linearGradient id="paint0_linear_43_1285" x1="407.469" y1="72.1605" x2="106.95" y2="545.608" gradientUnits="userSpaceOnUse">
<stop offset="0.3" stop-color="#3E863D"/>
<stop offset="0.5" stop-color="#55934F"/>
<stop offset="0.8" stop-color="#5AAD45"/>
</linearGradient>
<linearGradient id="paint1_linear_43_1285" x1="31.6717" y1="511.931" x2="569.102" y2="219.667" gradientUnits="userSpaceOnUse">
<stop offset="0.57" stop-color="#3E863D"/>
<stop offset="0.72" stop-color="#619857"/>
<stop offset="1" stop-color="#76AC64"/>
</linearGradient>
<linearGradient id="paint2_linear_43_1285" x1="10.5105" y1="325.318" x2="540.751" y2="325.318" gradientUnits="userSpaceOnUse">
<stop offset="0.16" stop-color="#6BBF47"/>
<stop offset="0.38" stop-color="#79B461"/>
<stop offset="0.47" stop-color="#75AC64"/>
<stop offset="0.7" stop-color="#659E5A"/>
<stop offset="0.9" stop-color="#3E863D"/>
</linearGradient>
<clipPath id="clip0_43_1285">
<rect width="32" height="32" fill="white"/>
</clipPath>
</defs>
</svg>
