<svg width="32" height="32" viewBox="0 0 32 32" fill="none" xmlns="http://www.w3.org/2000/svg">
<g clip-path="url(#clip0_39_342)">
<path d="M16.0005 18.2165C17.237 18.2165 18.2395 17.2141 18.2395 15.9775C18.2395 14.741 17.237 13.7385 16.0005 13.7385C14.7639 13.7385 13.7615 14.741 13.7615 15.9775C13.7615 17.2141 14.7639 18.2165 16.0005 18.2165Z" fill="#00D8FF"/>
<path fill-rule="evenodd" clip-rule="evenodd" d="M16.165 11.258C19.9825 11.284 24.1475 11.5625 27.0065 14.112C27.0905 14.187 27.1715 14.265 27.2505 14.3455C27.925 15.033 28.2775 16.143 27.733 17.0565C26.616 18.932 24.118 19.75 21.6995 20.2535C18.0825 21.0065 14.3005 21.0125 10.685 20.3495C8.60447 19.9675 6.47697 19.298 4.99847 17.8975C4.42297 17.3525 3.93097 16.6355 4.00797 15.8375C4.13297 14.5465 5.37147 13.718 6.41397 13.157C9.30947 11.599 12.8375 11.2505 16.165 11.258ZM15.888 11.8445C12.276 11.869 8.36647 12.0995 5.57747 14.409C5.47997 14.4895 5.38597 14.574 5.29547 14.6625C5.23697 14.7195 5.18047 14.779 5.12597 14.84C4.63647 15.39 4.46797 16.2735 4.92997 16.934C5.39497 17.5985 6.10097 18.078 6.82797 18.469C9.54697 19.931 12.76 20.1905 15.8925 20.2015C19.064 20.213 22.3345 19.924 25.136 18.4755C26.252 17.898 27.508 17.05 27.4635 15.958C27.4225 14.956 26.4455 14.337 25.714 13.895C25.516 13.7755 25.3125 13.665 25.106 13.561C22.325 12.1675 19.066 11.8375 15.888 11.8445Z" fill="#00D8FF"/>
<path fill-rule="evenodd" clip-rule="evenodd" d="M21.0574 5.3515C22.4539 5.387 23.1774 7.066 23.2729 8.306C23.2919 8.5525 23.2989 8.8 23.2959 9.0475C23.2929 9.3155 23.2784 9.5835 23.2549 9.8505C22.9604 13.1565 21.4509 16.305 19.6734 19.2125C17.9349 22.0565 15.8149 24.8925 12.9309 26.2105C11.9774 26.6465 10.8434 26.9155 9.99943 26.429C8.84243 25.7625 8.71593 24.2035 8.73743 23.021C8.74293 22.7305 8.76193 22.44 8.79193 22.1505C9.23643 17.8705 11.4059 13.816 14.1209 10.323C15.7049 8.285 17.5894 6.2635 19.9369 5.5315C20.3064 5.416 20.5999 5.346 21.0574 5.3515ZM20.9904 5.9375C19.3509 5.9635 17.8789 7.1785 16.5754 8.441C13.1484 11.7595 10.6229 16.173 9.60693 20.8015C9.52843 21.16 9.46243 21.521 9.41393 21.8845C9.37643 22.166 9.34893 22.449 9.33443 22.733C9.32293 22.959 9.31893 23.1855 9.32593 23.412C9.33093 23.589 9.34243 23.766 9.36193 23.942C9.37643 24.0765 9.39593 24.2105 9.42043 24.3435C9.43893 24.442 9.46043 24.54 9.48543 24.6375C9.50593 24.7165 9.52893 24.795 9.55493 24.873C9.75943 25.4895 10.2864 26.0785 10.9939 26.098C12.6444 26.143 14.1984 24.9395 15.5419 23.6315C17.9004 21.336 19.6579 18.4515 21.0309 15.4195C22.1389 12.9715 23.1524 10.3105 22.5864 7.616C22.5649 7.514 22.5399 7.413 22.5114 7.313C22.4879 7.2315 22.4614 7.151 22.4324 7.0715C22.2124 6.472 21.6949 5.936 20.9904 5.9375Z" fill="#00D8FF"/>
<path fill-rule="evenodd" clip-rule="evenodd" d="M11.0545 5.37352C12.8365 5.40802 14.437 6.61752 15.858 7.97202C18.451 10.4435 20.3635 13.5875 21.8145 16.8965C22.9385 19.46 23.9725 22.3375 23.0535 25.0425C22.764 25.895 22.0315 26.675 21.055 26.695C19.2645 26.731 17.605 25.429 16.165 24.0275C12.5525 20.5105 9.87048 15.8675 8.95148 10.9435C8.88548 10.5915 8.83298 10.2365 8.79698 9.88002C8.76748 9.58902 8.74898 9.29652 8.74398 9.00402C8.73998 8.76802 8.74498 8.53202 8.76148 8.29702C8.77248 8.14002 8.78848 7.98402 8.80998 7.82852C8.83048 7.68252 8.85648 7.53702 8.88898 7.39302C8.91048 7.29752 8.93448 7.20302 8.96198 7.10902C9.23148 6.18752 9.93248 5.36652 11.0545 5.37352ZM10.987 5.96002C9.94348 5.98302 9.46598 7.21352 9.36998 8.07702C9.35048 8.25402 9.33848 8.43252 9.33298 8.61102C9.32598 8.83902 9.32898 9.06752 9.34048 9.29552C9.50448 12.595 10.9795 15.785 12.7595 18.706C14.4355 21.456 16.4595 24.195 19.2435 25.603C20.0475 26.0095 21.0245 26.329 21.719 25.945C22.59 25.463 22.697 24.3145 22.7435 23.4585C22.756 23.2255 22.7575 22.9915 22.75 22.758C22.741 22.465 22.718 22.1725 22.6835 21.8815C22.3625 19.163 21.1585 16.5905 19.7755 14.1595C18.0545 11.1355 15.946 8.12152 12.962 6.54702C12.344 6.22102 11.675 5.95452 10.987 5.96002Z" fill="#00D8FF"/>
</g>
<defs>
<clipPath id="clip0_39_342">
<rect width="32" height="32" fill="white"/>
</clipPath>
</defs>
</svg>
